<?xml version="1.0" encoding="UTF-8"?>
<svg xmlns="http://www.w3.org/2000/svg" xmlns:xlink="http://www.w3.org/1999/xlink" width="360pt" height="72pt" viewBox="0 0 360 72" version="1.1">
<g id="surface1">
<rect x="0" y="0" width="360" height="72" style="fill:rgb(100%,100%,100%);fill-opacity:1;stroke:none;"/>
<path style="fill-rule:nonzero;fill:rgb(80%,35.686275%,27.843137%);fill-opacity:1;stroke-width:0.708661;stroke-linecap:round;stroke-linejoin:round;stroke:rgb(80%,35.686275%,27.843137%);stroke-opacity:1;stroke-miterlimit:10;" d="M 22.054688 36 C 22.054688 39.140625 19.503906 41.6875 16.363281 41.6875 C 13.222656 41.6875 10.675781 39.140625 10.675781 36 C 10.675781 32.859375 13.222656 30.3125 16.363281 30.3125 C 19.503906 30.3125 22.054688 32.859375 22.054688 36 "/>
<path style="fill-rule:nonzero;fill:rgb(28.235294%,52.156863%,58.431373%);fill-opacity:1;stroke-width:0.708661;stroke-linecap:round;stroke-linejoin:round;stroke:rgb(28.235294%,52.156863%,58.431373%);stroke-opacity:1;stroke-miterlimit:10;" d="M 87.507812 36 C 87.507812 39.140625 84.960938 41.6875 81.816406 41.6875 C 78.675781 41.6875 76.128906 39.140625 76.128906 36 C 76.128906 32.859375 78.675781 30.3125 81.816406 30.3125 C 84.960938 30.3125 87.507812 32.859375 87.507812 36 "/>
<path style="fill-rule:nonzero;fill:rgb(58.823529%,75.686275%,48.627451%);fill-opacity:1;stroke-width:0.708661;stroke-linecap:round;stroke-linejoin:round;stroke:rgb(58.823529%,75.686275%,48.627451%);stroke-opacity:1;stroke-miterlimit:10;" d="M 152.960938 36 C 152.960938 39.140625 150.414062 41.6875 147.273438 41.6875 C 144.128906 41.6875 141.582031 39.140625 141.582031 36 C 141.582031 32.859375 144.128906 30.3125 147.273438 30.3125 C 150.414062 30.3125 152.960938 32.859375 152.960938 36 "/>
<path style="fill-rule:nonzero;fill:rgb(87.058824%,80.392157%,48.627451%);fill-opacity:1;stroke-width:0.708661;stroke-linecap:round;stroke-linejoin:round;stroke:rgb(87.058824%,80.392157%,48.627451%);stroke-opacity:1;stroke-miterlimit:10;" d="M 218.417969 36 C 218.417969 39.140625 215.871094 41.6875 212.726562 41.6875 C 209.585938 41.6875 207.039062 39.140625 207.039062 36 C 207.039062 32.859375 209.585938 30.3125 212.726562 30.3125 C 215.871094 30.3125 218.417969 32.859375 218.417969 36 "/>
<path style="fill-rule:nonzero;fill:rgb(57.254902%,28.235294%,33.333333%);fill-opacity:1;stroke-width:0.708661;stroke-linecap:round;stroke-linejoin:round;stroke:rgb(57.254902%,28.235294%,33.333333%);stroke-opacity:1;stroke-miterlimit:10;" d="M 283.871094 36 C 283.871094 39.140625 281.324219 41.6875 278.183594 41.6875 C 275.039062 41.6875 272.492188 39.140625 272.492188 36 C 272.492188 32.859375 275.039062 30.3125 278.183594 30.3125 C 281.324219 30.3125 283.871094 32.859375 283.871094 36 "/>
<path style="fill-rule:nonzero;fill:rgb(90.588235%,57.254902%,45.882353%);fill-opacity:1;stroke-width:0.708661;stroke-linecap:round;stroke-linejoin:round;stroke:rgb(90.588235%,57.254902%,45.882353%);stroke-opacity:1;stroke-miterlimit:10;" d="M 349.324219 36 C 349.324219 39.140625 346.777344 41.6875 343.636719 41.6875 C 340.496094 41.6875 337.945312 39.140625 337.945312 36 C 337.945312 32.859375 340.496094 30.3125 343.636719 30.3125 C 346.777344 30.3125 349.324219 32.859375 349.324219 36 "/>
</g>
</svg>
